<svg width="14" height="14" viewBox="0 0 14 14" fill="none" xmlns="http://www.w3.org/2000/svg">
<path d="M13.9992 10.4372V13.1873C13.9993 13.3842 13.9247 13.5738 13.7905 13.7178C13.6562 13.8619 13.4724 13.9497 13.2759 13.9634C12.9361 13.9868 12.6584 13.9992 12.4438 13.9992C5.57091 13.9992 0 8.42831 0 1.55547C0 1.34081 0.011666 1.06316 0.0357758 0.723293C0.0495591 0.526872 0.137333 0.342989 0.281387 0.208751C0.425441 0.0745123 0.61505 -8.89986e-05 0.811955 1.99551e-07H3.56202C3.65849 -9.74769e-05 3.75156 0.0356662 3.82313 0.100344C3.89471 0.165021 3.93969 0.253995 3.94934 0.349981C3.96722 0.52886 3.98356 0.671185 3.99911 0.77929C4.15367 1.85795 4.47042 2.90704 4.93861 3.89101C5.0125 4.04655 4.96428 4.23243 4.82429 4.33198L3.14594 5.53125C4.17212 7.92236 6.07764 9.82788 8.46875 10.8541L9.66646 9.17882C9.71542 9.11038 9.78684 9.06129 9.86828 9.04012C9.94972 9.01894 10.036 9.02702 10.1121 9.06294C11.096 9.53026 12.1448 9.84621 13.223 10.0001C13.3311 10.0157 13.4735 10.0328 13.6508 10.0499C13.7466 10.0597 13.8354 10.1048 13.8999 10.1763C13.9645 10.2479 14.0001 10.3408 14 10.4372H13.9992Z" fill="#666666"/>
</svg>
