<svg width="14" height="17" viewBox="0 0 14 17" fill="none" xmlns="http://www.w3.org/2000/svg">
<path d="M11.9498 11.9497L7 16.8995L2.05022 11.9497C1.07127 10.9707 0.404589 9.72346 0.1345 8.3656C-0.13559 7.00773 0.00303866 5.60027 0.532854 4.32119C1.06267 3.04212 1.95988 1.94887 3.11102 1.17971C4.26216 0.41054 5.61553 0 7 0C8.38447 0 9.73784 0.41054 10.889 1.17971C12.0401 1.94887 12.9373 3.04212 13.4671 4.32119C13.997 5.60027 14.1356 7.00773 13.8655 8.3656C13.5954 9.72346 12.9287 10.9707 11.9498 11.9497ZM7 8.55549C7.41256 8.55549 7.80822 8.3916 8.09994 8.09988C8.39167 7.80816 8.55555 7.41249 8.55555 6.99994C8.55555 6.58738 8.39167 6.19172 8.09994 5.89999C7.80822 5.60827 7.41256 5.44438 7 5.44438C6.58744 5.44438 6.19178 5.60827 5.90006 5.89999C5.60833 6.19172 5.44445 6.58738 5.44445 6.99994C5.44445 7.41249 5.60833 7.80816 5.90006 8.09988C6.19178 8.3916 6.58744 8.55549 7 8.55549Z" fill="#666666"/>
</svg>
