<svg width="14" height="13" viewBox="0 0 14 13" fill="none" xmlns="http://www.w3.org/2000/svg">
<path d="M10.6928 4.76827C11.3241 5.07572 12.0391 5.16674 12.7273 5.02727V12.0909C12.7273 12.2597 12.6602 12.4215 12.5409 12.5409C12.4215 12.6602 12.2597 12.7273 12.0909 12.7273H0.636364C0.467589 12.7273 0.305728 12.6602 0.186387 12.5409C0.0670452 12.4215 0 12.2597 0 12.0909V1.90909C0 1.74032 0.0670452 1.57846 0.186387 1.45911C0.305728 1.33977 0.467589 1.27273 0.636364 1.27273H8.97273C8.93073 1.47827 8.90909 1.69145 8.90909 1.90909C8.90804 2.66512 9.1773 3.39663 9.66827 3.97155L6.40245 6.79827L2.32082 3.33327L1.49736 4.30309L6.41009 8.47445L10.6928 4.76827ZM12.0909 3.81818C11.8402 3.81818 11.592 3.7688 11.3603 3.67286C11.1287 3.57692 10.9183 3.4363 10.741 3.25902C10.5637 3.08175 10.4231 2.87129 10.3271 2.63967C10.2312 2.40805 10.1818 2.1598 10.1818 1.90909C10.1818 1.65839 10.2312 1.41014 10.3271 1.17851C10.4231 0.946892 10.5637 0.736435 10.741 0.55916C10.9183 0.381884 11.1287 0.241262 11.3603 0.145321C11.592 0.0493801 11.8402 -3.7358e-09 12.0909 0C12.5972 7.54479e-09 13.0828 0.201136 13.4408 0.55916C13.7989 0.917184 14 1.40277 14 1.90909C14 2.41541 13.7989 2.901 13.4408 3.25902C13.0828 3.61705 12.5972 3.81818 12.0909 3.81818Z" fill="#666666"/>
</svg>
